<svg xmlns="http://www.w3.org/2000/svg" viewBox="0 0 32 32"><circle cx="16" cy="16" r="16" fill="#FF4801"/><path d="M22.4 18.4c.16-.62.05-1.21-.31-1.65-.34-.41-.84-.66-1.46-.7l-12-.16a.24.24 0 0 1-.19-.1.27.27 0 0 1-.04-.22.34.34 0 0 1 .29-.22l12.1-.16c1.43-.07 2.99-1.23 3.55-2.65l.7-1.83a.43.43 0 0 0 .03-.25 7.7 7.7 0 0 0-14.85-.81 3.46 3.46 0 0 0-2.42-.66c-1.61.16-2.91 1.46-3.07 3.07-.04.41-.01.81.08 1.19A4.9 4.9 0 0 0 0 18.36c0 .14.01.27.02.41a.15.15 0 0 0 .14.13l21.96.01h.05a.34.34 0 0 0 .31-.24l-.08-.27Z" fill="#fff"/><path d="M25.31 11.25h-.21a.13.13 0 0 0-.12.09l-.49 1.66c-.17.62-.05 1.21.3 1.65.34.41.84.66 1.46.7l2.55.16a.24.24 0 0 1 .19.1c.05.07.06.16.04.22a.34.34 0 0 1-.29.22l-2.66.16c-1.43.07-2.99 1.23-3.55 2.65l-.19.49a.21.21 0 0 0 .15.28c.12.04.25.05.38.05h9.13a.4.4 0 0 0 .39-.31 7.7 7.7 0 0 0 .26-1.99 7.71 7.71 0 0 0-7.34-7.13Z" fill="#fff"/></svg>
